<?xml version="1.0" encoding="utf-8"?>
<!-- Generator: Adobe Illustrator 16.0.0, SVG Export Plug-In . SVG Version: 6.00 Build 0)  -->
<!DOCTYPE svg PUBLIC "-//W3C//DTD SVG 1.1//EN" "http://www.w3.org/Graphics/SVG/1.1/DTD/svg11.dtd">
<svg version="1.1" id="Layer_1" xmlns="http://www.w3.org/2000/svg" xmlns:xlink="http://www.w3.org/1999/xlink" x="0px" y="0px"
	 width="136.667px" height="70.667px" viewBox="0 0 136.667 70.667" enable-background="new 0 0 136.667 70.667"
	 xml:space="preserve">
<g>
	<g>
		<path d="M68.032,22.015h-6.024c0.055,0.75,0.342,1.354,0.862,1.814s1.179,0.691,1.972,0.691c0.447,0,0.858-0.08,1.232-0.239
			c0.375-0.16,0.698-0.396,0.973-0.706l0.547,0.63c-0.318,0.384-0.719,0.676-1.197,0.877c-0.479,0.201-1.006,0.301-1.582,0.301
			c-0.74,0-1.395-0.157-1.965-0.472c-0.57-0.316-1.017-0.751-1.336-1.309c-0.319-0.557-0.479-1.187-0.479-1.891
			c0-0.703,0.153-1.333,0.458-1.89c0.306-0.558,0.726-0.991,1.261-1.302c0.533-0.311,1.135-0.465,1.801-0.465
			s1.265,0.154,1.793,0.465c0.529,0.311,0.945,0.742,1.246,1.293c0.303,0.554,0.453,1.186,0.453,1.897L68.032,22.015z
			 M62.806,19.556c-0.469,0.443-0.737,1.021-0.801,1.732h5.108c-0.063-0.712-0.332-1.29-0.801-1.732
			c-0.47-0.442-1.058-0.664-1.759-0.664C63.859,18.892,63.277,19.113,62.806,19.556z"/>
		<path d="M76.701,18.11v6.328c0,1.223-0.301,2.129-0.898,2.718s-1.498,0.884-2.703,0.884c-0.668,0-1.301-0.1-1.897-0.295
			c-0.599-0.197-1.084-0.469-1.458-0.814l0.493-0.74c0.347,0.311,0.769,0.553,1.267,0.727c0.497,0.173,1.021,0.26,1.568,0.26
			c0.913,0,1.584-0.212,2.013-0.637c0.431-0.424,0.644-1.084,0.644-1.979v-0.918c-0.301,0.457-0.695,0.805-1.185,1.041
			c-0.489,0.237-1.028,0.356-1.622,0.356c-0.677,0-1.291-0.147-1.843-0.444c-0.553-0.297-0.985-0.713-1.301-1.246
			c-0.313-0.535-0.474-1.14-0.474-1.814c0-0.676,0.158-1.278,0.474-1.809c0.315-0.528,0.746-0.939,1.294-1.232
			c0.548-0.292,1.163-0.438,1.85-0.438c0.612,0,1.163,0.123,1.656,0.369c0.492,0.247,0.891,0.604,1.191,1.068v-1.383h0.932V18.11z
			 M74.427,23.842c0.418-0.223,0.746-0.536,0.979-0.938c0.233-0.401,0.349-0.857,0.349-1.369s-0.115-0.965-0.349-1.363
			c-0.233-0.396-0.558-0.708-0.974-0.932c-0.414-0.225-0.887-0.336-1.418-0.336c-0.52,0-0.987,0.109-1.402,0.33
			c-0.416,0.219-0.739,0.529-0.973,0.932s-0.35,0.857-0.35,1.37c0,0.512,0.115,0.968,0.35,1.37c0.232,0.402,0.557,0.714,0.973,0.938
			c0.415,0.225,0.884,0.335,1.402,0.335C73.536,24.179,74.007,24.065,74.427,23.842z"/>
		<path d="M84.505,24.507v0.809h-5.861v-0.645l4.533-5.738h-4.451v-0.82h5.697v0.644l-4.533,5.751H84.505L84.505,24.507z"/>
		<path d="M91.107,18.763c0.503,0.471,0.754,1.166,0.754,2.088v4.465h-0.932v-1.123c-0.22,0.375-0.541,0.666-0.965,0.875
			c-0.426,0.211-0.931,0.315-1.515,0.315c-0.803,0-1.442-0.192-1.917-0.575c-0.477-0.384-0.713-0.892-0.713-1.521
			c0-0.611,0.223-1.104,0.664-1.479c0.443-0.375,1.148-0.562,2.115-0.562h2.287v-0.438c0-0.619-0.174-1.093-0.521-1.416
			c-0.347-0.324-0.854-0.488-1.521-0.488c-0.457,0-0.896,0.076-1.314,0.227c-0.42,0.151-0.78,0.359-1.082,0.624l-0.438-0.726
			c0.364-0.311,0.804-0.551,1.314-0.719c0.512-0.168,1.049-0.254,1.616-0.254C89.884,18.056,90.606,18.291,91.107,18.763z
			 M90.011,24.24c0.394-0.251,0.686-0.614,0.877-1.089v-1.178h-2.26c-1.231,0-1.849,0.43-1.849,1.289c0,0.42,0.159,0.75,0.479,0.992
			c0.318,0.242,0.767,0.363,1.34,0.363C89.15,24.616,89.619,24.491,90.011,24.24z"/>
		<path d="M105.617,18.838c0.516,0.521,0.773,1.286,0.773,2.3v4.178h-0.974v-4.082c0-0.748-0.18-1.318-0.54-1.711
			c-0.361-0.394-0.871-0.59-1.527-0.59c-0.748,0-1.338,0.23-1.767,0.691c-0.431,0.461-0.646,1.1-0.646,1.91v3.779h-0.973v-4.08
			c0-0.75-0.181-1.32-0.541-1.713c-0.359-0.393-0.873-0.588-1.541-0.588c-0.738,0-1.326,0.229-1.759,0.69
			c-0.434,0.461-0.651,1.099-0.651,1.91v3.78H94.5V18.11h0.934v1.314c0.254-0.438,0.609-0.775,1.067-1.014
			c0.456-0.237,0.981-0.355,1.573-0.355c0.604,0,1.127,0.127,1.568,0.383s0.773,0.636,0.994,1.138
			c0.265-0.476,0.646-0.847,1.143-1.117c0.497-0.269,1.066-0.403,1.706-0.403C104.392,18.056,105.101,18.315,105.617,18.838z"/>
		<path d="M109.021,16.331c-0.139-0.137-0.205-0.301-0.205-0.493c0-0.182,0.066-0.342,0.205-0.479
			c0.137-0.137,0.306-0.205,0.507-0.205c0.2,0,0.369,0.066,0.507,0.199c0.137,0.131,0.205,0.289,0.205,0.473
			c0,0.201-0.068,0.369-0.205,0.507c-0.138,0.137-0.307,0.205-0.507,0.205C109.326,16.536,109.158,16.467,109.021,16.331z
			 M109.034,18.11h0.974v7.205h-0.974V18.11z"/>
		<path d="M118.544,18.844c0.534,0.525,0.801,1.29,0.801,2.294v4.176h-0.972v-4.08c0-0.75-0.186-1.319-0.561-1.713
			c-0.375-0.393-0.908-0.588-1.604-0.588c-0.775,0-1.389,0.229-1.842,0.69c-0.452,0.461-0.677,1.099-0.677,1.91v3.78h-0.974V18.11
			h0.931v1.328c0.266-0.438,0.634-0.777,1.104-1.021c0.47-0.242,1.015-0.362,1.638-0.362
			C117.292,18.056,118.011,18.319,118.544,18.844z"/>
		<path d="M127.907,18.11l-3.603,8.068c-0.295,0.674-0.631,1.153-1.016,1.438c-0.384,0.283-0.845,0.425-1.383,0.425
			c-0.348,0-0.671-0.056-0.973-0.165c-0.301-0.109-0.562-0.273-0.779-0.493l0.451-0.726c0.365,0.365,0.804,0.548,1.316,0.548
			c0.326,0,0.608-0.092,0.84-0.274c0.233-0.183,0.449-0.492,0.65-0.932l0.314-0.698l-3.217-7.19h1.014l2.712,6.123l2.712-6.123
			H127.907L127.907,18.11z"/>
		<path d="M66.841,41.085v0.807h-5.863V41.25l4.533-5.739H61.06v-0.822h5.697v0.645l-4.533,5.752H66.841z"/>
		<path d="M73.442,35.339c0.502,0.471,0.752,1.167,0.752,2.088v4.465h-0.931v-1.123c-0.221,0.375-0.541,0.668-0.967,0.877
			c-0.424,0.209-0.93,0.314-1.513,0.314c-0.804,0-1.442-0.191-1.917-0.574s-0.713-0.891-0.713-1.52c0-0.611,0.222-1.105,0.664-1.479
			c0.443-0.375,1.148-0.564,2.117-0.564h2.287v-0.438c0-0.621-0.176-1.094-0.521-1.418c-0.346-0.325-0.854-0.487-1.52-0.487
			c-0.457,0-0.896,0.076-1.315,0.228c-0.42,0.152-0.78,0.359-1.081,0.623l-0.438-0.725c0.363-0.311,0.804-0.551,1.313-0.719
			c0.511-0.169,1.05-0.254,1.616-0.254C72.218,34.635,72.939,34.869,73.442,35.339z M72.345,40.818
			c0.394-0.25,0.685-0.613,0.877-1.088v-1.18h-2.26c-1.231,0-1.85,0.432-1.85,1.289c0,0.42,0.16,0.752,0.479,0.992
			c0.319,0.242,0.768,0.363,1.344,0.363C71.483,41.195,71.952,41.07,72.345,40.818z"/>
		<path d="M87.274,34.688l-2.726,7.204H83.63l-2.272-5.902l-2.273,5.902h-0.918l-2.711-7.204h0.931l2.26,6.122l2.316-6.122h0.834
			l2.301,6.122l2.287-6.122H87.274z"/>
		<path d="M89.601,41.49c-0.557-0.316-0.995-0.752-1.314-1.309c-0.32-0.557-0.479-1.188-0.479-1.891s0.158-1.332,0.479-1.891
			c0.319-0.559,0.757-0.991,1.314-1.301c0.557-0.31,1.184-0.466,1.877-0.466s1.318,0.155,1.876,0.466s0.993,0.745,1.308,1.301
			c0.314,0.555,0.473,1.188,0.473,1.891s-0.158,1.334-0.473,1.891s-0.75,0.992-1.308,1.309c-0.558,0.314-1.183,0.471-1.876,0.471
			S90.158,41.804,89.601,41.49z M92.855,40.75c0.404-0.23,0.723-0.563,0.951-0.994c0.229-0.428,0.344-0.916,0.344-1.465
			c0-0.547-0.115-1.035-0.344-1.465c-0.229-0.428-0.545-0.76-0.951-0.992c-0.406-0.233-0.866-0.35-1.377-0.35
			c-0.512,0-0.971,0.115-1.377,0.35c-0.405,0.232-0.725,0.564-0.959,0.992c-0.231,0.43-0.351,0.918-0.351,1.465
			c0,0.549,0.118,1.037,0.351,1.465c0.232,0.434,0.554,0.764,0.959,0.994c0.406,0.232,0.865,0.352,1.377,0.352
			C91.989,41.099,92.448,40.982,92.855,40.75z"/>
		<path d="M103.694,31.731v10.161h-0.931v-1.424c-0.293,0.484-0.681,0.854-1.157,1.109c-0.48,0.256-1.021,0.383-1.624,0.383
			c-0.676,0-1.286-0.154-1.835-0.465c-0.548-0.311-0.979-0.744-1.287-1.301c-0.31-0.557-0.466-1.191-0.466-1.904
			c0-0.711,0.156-1.346,0.466-1.902c0.31-0.556,0.737-0.989,1.287-1.294c0.549-0.307,1.159-0.459,1.835-0.459
			c0.585,0,1.111,0.12,1.582,0.362s0.854,0.596,1.156,1.061v-4.329L103.694,31.731L103.694,31.731z M101.427,40.75
			c0.405-0.23,0.727-0.563,0.959-0.994c0.232-0.428,0.35-0.916,0.35-1.465c0-0.547-0.116-1.035-0.35-1.465
			c-0.232-0.428-0.553-0.76-0.959-0.992c-0.406-0.233-0.86-0.35-1.363-0.35c-0.512,0-0.971,0.115-1.376,0.35
			c-0.406,0.232-0.726,0.564-0.958,0.992c-0.233,0.43-0.35,0.918-0.35,1.465c0,0.549,0.116,1.037,0.35,1.465
			c0.232,0.434,0.552,0.764,0.958,0.994c0.405,0.232,0.864,0.352,1.376,0.352C100.567,41.099,101.021,40.982,101.427,40.75z"/>
		<path d="M107.474,41.49c-0.558-0.316-0.995-0.752-1.315-1.309c-0.319-0.557-0.479-1.188-0.479-1.891s0.16-1.332,0.479-1.891
			c0.32-0.559,0.759-0.991,1.315-1.301c0.556-0.31,1.183-0.466,1.875-0.466c0.693,0,1.32,0.155,1.877,0.466s0.992,0.745,1.309,1.301
			c0.314,0.557,0.473,1.188,0.473,1.891s-0.158,1.334-0.473,1.891s-0.752,0.992-1.309,1.309c-0.557,0.314-1.184,0.471-1.877,0.471
			C108.657,41.96,108.03,41.804,107.474,41.49z M110.726,40.75c0.406-0.23,0.725-0.563,0.953-0.994
			c0.228-0.428,0.342-0.916,0.342-1.465c0-0.547-0.114-1.035-0.342-1.465c-0.229-0.428-0.547-0.76-0.953-0.992
			c-0.404-0.233-0.864-0.35-1.377-0.35c-0.512,0-0.971,0.115-1.375,0.35c-0.407,0.232-0.729,0.564-0.961,0.992
			c-0.232,0.43-0.349,0.918-0.349,1.465c0,0.549,0.117,1.037,0.349,1.465c0.232,0.434,0.554,0.764,0.961,0.994
			c0.404,0.232,0.863,0.352,1.375,0.352C109.862,41.101,110.321,40.982,110.726,40.75z"/>
		<path d="M125.36,34.688l-2.726,7.204h-0.918l-2.273-5.902l-2.271,5.902h-0.918l-2.712-7.204h0.931l2.262,6.122l2.314-6.122h0.836
			l2.299,6.122l2.287-6.122H125.36z"/>
		<path d="M132.89,38.593h-6.024c0.056,0.748,0.343,1.354,0.862,1.814c0.521,0.459,1.178,0.691,1.973,0.691
			c0.447,0,0.857-0.08,1.232-0.238c0.373-0.162,0.699-0.396,0.973-0.707l0.547,0.631c-0.318,0.383-0.719,0.674-1.197,0.877
			c-0.479,0.201-1.008,0.301-1.582,0.301c-0.738,0-1.395-0.158-1.965-0.473c-0.57-0.316-1.017-0.75-1.336-1.309
			c-0.318-0.559-0.479-1.188-0.479-1.893c0-0.703,0.152-1.332,0.457-1.891c0.308-0.555,0.728-0.988,1.262-1.299
			c0.534-0.311,1.134-0.466,1.801-0.466c0.665,0,1.266,0.155,1.794,0.466c0.528,0.312,0.945,0.741,1.246,1.293
			c0.302,0.553,0.452,1.186,0.452,1.896L132.89,38.593z M127.667,36.134c-0.472,0.443-0.737,1.02-0.802,1.732h5.107
			c-0.063-0.713-0.33-1.289-0.801-1.732c-0.47-0.444-1.056-0.665-1.76-0.665C128.718,35.47,128.136,35.69,127.667,36.134z"/>
		<path d="M62.827,58.068c-0.556-0.316-0.996-0.752-1.313-1.309c-0.32-0.557-0.479-1.186-0.479-1.891
			c0-0.701,0.16-1.332,0.479-1.889c0.318-0.561,0.756-0.99,1.313-1.303s1.183-0.465,1.876-0.465c0.694,0,1.32,0.152,1.876,0.465
			c0.558,0.313,0.993,0.742,1.31,1.303c0.313,0.557,0.472,1.188,0.472,1.889c0,0.705-0.157,1.334-0.472,1.891
			c-0.316,0.557-0.752,0.992-1.31,1.309c-0.556,0.314-1.182,0.473-1.876,0.473C64.011,58.541,63.384,58.382,62.827,58.068z
			 M66.08,57.328c0.406-0.234,0.725-0.563,0.952-0.992s0.343-0.918,0.343-1.467c0-0.547-0.115-1.035-0.343-1.465
			c-0.229-0.428-0.545-0.76-0.952-0.992c-0.406-0.23-0.865-0.348-1.376-0.348s-0.97,0.115-1.376,0.348s-0.727,0.564-0.959,0.992
			c-0.232,0.43-0.35,0.918-0.35,1.465c0,0.549,0.115,1.037,0.35,1.467c0.232,0.43,0.553,0.762,0.959,0.992
			c0.406,0.232,0.865,0.348,1.376,0.348C65.214,57.677,65.673,57.56,66.08,57.328z"/>
		<path d="M76.173,52.001c0.533,0.523,0.801,1.289,0.801,2.293v4.178h-0.973v-4.08c0-0.75-0.188-1.32-0.561-1.713
			c-0.376-0.393-0.909-0.59-1.604-0.59c-0.775,0-1.392,0.23-1.843,0.691s-0.678,1.1-0.678,1.91v3.777h-0.974v-7.201h0.933v1.326
			c0.265-0.438,0.633-0.775,1.103-1.02c0.471-0.242,1.016-0.363,1.639-0.363C74.921,51.212,75.64,51.474,76.173,52.001z"/>
		<path d="M79.617,48.31h0.973v10.16h-0.973V48.31z"/>
		<path d="M83.287,49.488c-0.137-0.137-0.205-0.303-0.205-0.494c0-0.182,0.068-0.342,0.205-0.479
			c0.139-0.137,0.307-0.205,0.508-0.205c0.199,0,0.369,0.064,0.506,0.197c0.138,0.133,0.205,0.291,0.205,0.473
			c0,0.201-0.067,0.371-0.205,0.508c-0.137,0.137-0.307,0.205-0.506,0.205C83.593,49.693,83.425,49.625,83.287,49.488z M83.3,51.267
			h0.974v7.203H83.3V51.267z"/>
		<path d="M92.812,52.001c0.535,0.523,0.802,1.289,0.802,2.293v4.178H92.64v-4.08c0-0.75-0.186-1.32-0.561-1.713
			c-0.374-0.393-0.908-0.59-1.604-0.59c-0.775,0-1.389,0.23-1.842,0.691s-0.678,1.1-0.678,1.91v3.777h-0.973v-7.201h0.931v1.326
			c0.265-0.438,0.634-0.775,1.103-1.02c0.473-0.242,1.018-0.363,1.639-0.363C91.56,51.212,92.279,51.474,92.812,52.001z"/>
		<path d="M102.556,55.169h-6.025c0.055,0.75,0.344,1.355,0.861,1.816c0.521,0.461,1.18,0.689,1.975,0.689
			c0.446,0,0.855-0.078,1.23-0.236c0.375-0.16,0.699-0.396,0.973-0.707l0.549,0.629c-0.32,0.385-0.72,0.678-1.197,0.877
			c-0.479,0.203-1.008,0.303-1.582,0.303c-0.74,0-1.396-0.158-1.966-0.473c-0.569-0.316-1.017-0.752-1.336-1.311
			c-0.319-0.557-0.479-1.186-0.479-1.891c0-0.701,0.154-1.332,0.461-1.889c0.305-0.559,0.725-0.99,1.259-1.301
			c0.535-0.311,1.135-0.465,1.801-0.465c0.667,0,1.265,0.154,1.794,0.465c0.531,0.311,0.945,0.742,1.247,1.295
			s0.453,1.184,0.453,1.896L102.556,55.169z M97.331,52.712c-0.47,0.443-0.737,1.02-0.801,1.732h5.108
			c-0.063-0.713-0.332-1.289-0.801-1.732c-0.471-0.443-1.058-0.664-1.762-0.664C98.384,52.048,97.802,52.269,97.331,52.712z"/>
	</g>
	<path d="M53.929,14.792h-0.103h-11.2H9.516v0.1v11.201v33.112h0.001h11.3h33.01v-0.102h0.103V14.792z M20.817,26.094h21.811v21.81
		H20.817V26.094z"/>
	<rect x="31.269" y="6.822" transform="matrix(0.9619 0.2735 -0.2735 0.9619 10.9128 -7.6253)" width="3.063" height="56.999"/>
	<rect x="34.234" y="7.725" transform="matrix(0.9765 0.2155 -0.2155 0.9765 8.6462 -6.8558)" width="3.064" height="57.003"/>
	<rect x="37.196" y="8.505" transform="matrix(0.9491 0.3151 -0.3151 0.9491 13.6327 -10.3173)" width="3.062" height="57.003"/>
	<rect x="31.267" y="6.849" transform="matrix(-0.9619 -0.2735 0.2735 -0.9619 54.6813 78.3176)" width="3.064" height="56.998"/>
	<rect x="28.287" y="5.935" transform="matrix(-0.9766 -0.2149 0.2149 -0.9766 51.5404 74.4722)" width="3.063" height="56.999"/>
	<rect x="25.329" y="5.159" transform="matrix(-0.9488 -0.3158 0.3158 -0.9488 41.7162 74.0812)" width="3.063" height="57.002"/>
</g>
</svg>
