<?xml version="1.0" encoding="utf-8"?>
<!-- Generator: Adobe Illustrator 16.0.0, SVG Export Plug-In . SVG Version: 6.00 Build 0)  -->
<!DOCTYPE svg PUBLIC "-//W3C//DTD SVG 1.1//EN" "http://www.w3.org/Graphics/SVG/1.1/DTD/svg11.dtd">
<svg version="1.1" id="Layer_1" xmlns="http://www.w3.org/2000/svg" xmlns:xlink="http://www.w3.org/1999/xlink" x="0px" y="0px"
	 width="136.667px" height="70.667px" viewBox="0 0 136.667 70.667" enable-background="new 0 0 136.667 70.667"
	 xml:space="preserve">
<g>
	<path d="M53.929,14.792h-0.103h-11.2H9.516v0.1v11.201v33.112h0.001h11.3h33.01v-0.102h0.103V14.792z M20.817,26.094h21.811v21.81
		H20.817V26.094z"/>
	<rect x="31.269" y="6.822" transform="matrix(0.9619 0.2735 -0.2735 0.9619 10.9128 -7.6253)" width="3.063" height="56.999"/>
	<rect x="34.234" y="7.725" transform="matrix(0.9765 0.2155 -0.2155 0.9765 8.6462 -6.8558)" width="3.064" height="57.003"/>
	<rect x="37.196" y="8.505" transform="matrix(0.9491 0.3151 -0.3151 0.9491 13.6327 -10.3173)" width="3.062" height="57.003"/>
	<rect x="31.267" y="6.849" transform="matrix(-0.9619 -0.2735 0.2735 -0.9619 54.6813 78.3176)" width="3.064" height="56.998"/>
	<rect x="28.287" y="5.935" transform="matrix(-0.9766 -0.2149 0.2149 -0.9766 51.5404 74.4722)" width="3.063" height="56.999"/>
	<rect x="25.329" y="5.159" transform="matrix(-0.9488 -0.3158 0.3158 -0.9488 41.7162 74.0812)" width="3.063" height="57.002"/>
</g>
</svg>
